<?xml version="1.0" standalone="no"?><!DOCTYPE svg PUBLIC "-//W3C//DTD SVG 1.1//EN" "http://www.w3.org/Graphics/SVG/1.1/DTD/svg11.dtd"><svg t="1577689432238" class="icon" viewBox="0 0 1024 1024" version="1.1" xmlns="http://www.w3.org/2000/svg" p-id="797" xmlns:xlink="http://www.w3.org/1999/xlink" width="200" height="200"><defs><style type="text/css"></style></defs><path d="M512 2.98775376H112.06180653c-40.1028934 0-72.71603518 32.61314178-72.71603518 72.71603519v872.5924221c0 40.1028934 32.61314178 72.71603518 72.71603518 72.71603519h399.93819347c40.1028934 0 72.71603518-32.61314178 72.71603518-72.71603519V75.70378895c0-40.1028934-32.61314178-72.71603518-72.71603518-72.71603519zM112.06180653 948.29621105V75.70378895h399.93819347l0.03635802 872.5924221H112.06180653zM911.93819347 366.56792965h-218.14810552c-40.1028934 0-72.71603518 32.61314178-72.71603519 72.71603517v509.01224623c0 40.1028934 32.61314178 72.71603518 72.71603519 72.71603519h218.14810552c40.1028934 0 72.71603518-32.61314178 72.71603518-72.71603519V439.28396482c0-40.1028934-32.61314178-72.71603518-72.71603518-72.71603517z m-218.14810552 581.7282814V439.28396482h218.14810552l0.07271603 509.01224623H693.79008795z" fill="#3388FF" p-id="798" data-spm-anchor-id="a313x.7781069.0.i0" class="selected"></path><path d="M402.92594724 810.13574423H221.13585929a36.35801759 36.35801759 0 1 0 0 72.71603518h181.79008795a36.35801759 36.35801759 0 1 0 0-72.71603518z" fill="#3388FF" p-id="799"></path></svg>