<?xml version="1.0" standalone="no"?><!DOCTYPE svg PUBLIC "-//W3C//DTD SVG 1.1//EN" "http://www.w3.org/Graphics/SVG/1.1/DTD/svg11.dtd"><svg t="1577689536532" class="icon" viewBox="0 0 1024 1024" version="1.1" xmlns="http://www.w3.org/2000/svg" p-id="1033" xmlns:xlink="http://www.w3.org/1999/xlink" width="200" height="200"><defs><style type="text/css"></style></defs><path d="M839.2221583 766.50612312H439.28396482a36.35801759 36.35801759 0 0 0 0 72.71603518h399.93819348a36.35801759 36.35801759 0 0 0 0-72.71603518zM839.2221583 475.64198241H439.28396482a36.35801759 36.35801759 0 0 0 0 72.71603518h399.93819348a36.35801759 36.35801759 0 0 0 0-72.71603518zM839.2221583 184.7778417H439.28396482a36.35801759 36.35801759 0 0 0 0 72.71603518h399.93819348a36.35801759 36.35801759 0 0 0 0-72.71603518zM275.67288567 766.50612312h-72.71603518a36.35801759 36.35801759 0 0 0 0 72.71603518h72.71603518a36.35801759 36.35801759 0 0 0 0-72.71603518zM275.67288567 475.64198241h-72.71603518a36.35801759 36.35801759 0 0 0 0 72.71603518h72.71603518a36.35801759 36.35801759 0 0 0 0-72.71603518zM275.67288567 184.7778417h-72.71603518a36.35801759 36.35801759 0 0 0 0 72.71603518h72.71603518a36.35801759 36.35801759 0 0 0 0-72.71603518z" fill="#3388FF" p-id="1034"></path><path d="M911.93819347 39.34577135H112.06180653a109.07405276 109.07405276 0 0 0-109.07405277 109.07405276v727.16035178a109.07405276 109.07405276 0 0 0 109.07405277 109.07405276h799.87638694a109.07405276 109.07405276 0 0 0 109.07405277-109.07405276V148.41982411a109.07405276 109.07405276 0 0 0-109.07405277-109.07405276z m36.35801758 836.23440454a36.35801759 36.35801759 0 0 1-36.35801758 36.35801758H112.06180653a36.35801759 36.35801759 0 0 1-36.35801758-36.35801758v-181.79008794h763.51836935a36.35801759 36.35801759 0 0 0 0-72.71603519H75.70378895v-218.14810552h763.51836935a36.35801759 36.35801759 0 0 0 0-72.71603519H75.70378895V148.41982411a36.35801759 36.35801759 0 0 1 36.35801758-36.35801758h799.87638694a36.35801759 36.35801759 0 0 1 36.35801758 36.35801758v727.16035178z" fill="#3388FF" p-id="1035"></path></svg>