<?xml version="1.0" standalone="no"?><!DOCTYPE svg PUBLIC "-//W3C//DTD SVG 1.1//EN" "http://www.w3.org/Graphics/SVG/1.1/DTD/svg11.dtd"><svg t="1577689459257" class="icon" viewBox="0 0 1024 1024" version="1.1" xmlns="http://www.w3.org/2000/svg" p-id="915" xmlns:xlink="http://www.w3.org/1999/xlink" width="200" height="200"><defs><style type="text/css"></style></defs><path d="M312.03090326 548.35801759C221.82666162 548.35801759 148.41982411 621.7648551 148.41982411 711.96909674S221.82666162 875.58017589 312.03090326 875.58017589s163.61107916-73.40683751 163.61107915-163.61107915-73.40683751-163.61107916-163.61107915-163.61107915z m0 254.50612312C261.92955503 802.86414071 221.13585929 762.10680299 221.13585929 711.96909674S261.92955503 621.07405276 312.03090326 621.07405276s90.89504397 40.75733771 90.89504398 90.89504398-40.79369573 90.89504397-90.89504398 90.89504397zM839.2221583 221.13585929h-240.21742221a36.35801759 36.35801759 0 1 0 0 72.71603517H839.2221583a36.35801759 36.35801759 0 1 0 0-72.71603517zM839.2221583 584.71603518h-240.21742221a36.35801759 36.35801759 0 1 0 0 72.71603517H839.2221583a36.35801759 36.35801759 0 1 0 0-72.71603517zM839.2221583 366.56792965h-240.21742221a36.35801759 36.35801759 0 1 0 0 72.71603517H839.2221583a36.35801759 36.35801759 0 1 0 0-72.71603517zM839.2221583 739.23760993h-240.21742221a36.35801759 36.35801759 0 1 0 0 72.71603518H839.2221583a36.35801759 36.35801759 0 1 0 0-72.71603518zM430.19446043 198.19395018l-137.46966451 168.8466337-80.71479904-91.29498217a36.35801759 36.35801759 0 0 0-54.46431036 48.1743733l80.67844104 91.29498217a72.31609699 72.31609699 0 0 0 54.5733844 24.57801989 71.98887483 71.98887483 0 0 0 56.28221123-26.79585897L486.54938769 244.07776839a36.35801759 36.35801759 0 0 0-56.35492726-45.88381821z" fill="#3388FF" p-id="916"></path><path d="M948.29621105 2.98775376H75.70378895c-40.1028934 0-72.71603518 32.61314178-72.71603519 72.71603519v872.5924221c0 40.1028934 32.61314178 72.71603518 72.71603519 72.71603519h872.5924221c40.1028934 0 72.71603518-32.61314178 72.71603519-72.71603519V75.70378895c0-40.1028934-32.61314178-72.71603518-72.71603519-72.71603519zM75.70378895 948.29621105V75.70378895h872.5924221l0.07271605 872.5924221H75.70378895z" fill="#3388FF" p-id="917"></path></svg>