<?xml version="1.0" standalone="no"?><!DOCTYPE svg PUBLIC "-//W3C//DTD SVG 1.1//EN" "http://www.w3.org/Graphics/SVG/1.1/DTD/svg11.dtd"><svg t="1577689672839" class="icon" viewBox="0 0 1024 1024" version="1.1" xmlns="http://www.w3.org/2000/svg" p-id="1151" xmlns:xlink="http://www.w3.org/1999/xlink" width="200" height="200"><defs><style type="text/css"></style></defs><path d="M624.96278261 818.96626087a33.39130435 33.39130435 0 0 1-29.48452174-33.15756522v-84.24626087a33.39130435 33.39130435 0 0 1 13.7906087-27.04695652c55.16243478-39.936 103.47965217-104.01391304 130.15930434-176.50643478a33.39130435 33.39130435 0 0 1 20.43547826-20.03478261c10.18434783-3.50608696 22.47234783-25.27721739 33.82539131-73.79478261 6.1773913-26.24556522-1.06852174-42.74086957-17.29669565-52.59130435a33.39130435 33.39130435 0 0 1-15.92765218-25.54434782C746.2066087 166.93426087 656.15026087 77.91304348 514.3373913 77.91304348c-144.25043478 0-237.84626087 91.89286957-251.136 252.97252174a33.39130435 33.39130435 0 0 1-15.69391304 25.61113043c-17.12973913 10.68521739-23.24034783 24.37565217-16.9293913 45.94643478 11.88730435 40.57043478 24.87652174 62.976 38.4 71.45739131a33.39130435 33.39130435 0 0 1 13.69043478 17.09634783c26.17878261 73.56104348 75.36417391 139.34191304 132.22956522 181.04765217a33.39130435 33.39130435 0 0 1 13.62365217 26.9133913V785.80869565a33.39130435 33.39130435 0 0 1-29.48452174 33.15756522c-130.56 15.36-221.85182609 56.76521739-235.776 92.52730435 2.40417391 1.10191304 5.3426087 2.2706087 8.74852174 3.43930435 17.93113043 6.27756522 45.41217391 12.02086957 80.47304348 16.79582608 68.352 9.28278261 161.91443478 14.35826087 259.51721739 14.35826087s191.16521739-5.07547826 259.51721739-14.35826087c35.06086957-4.77495652 62.54191304-10.51826087 80.47304348-16.79582608 3.43930435-1.16869565 6.34434783-2.3373913 8.74852174-3.43930435-13.92417391-35.76208696-105.216-77.13391304-235.7426087-92.49391305z m37.29808696-62.37495652c157.94086957 23.64104348 267.13043478 82.61008696 267.13043478 164.21843478C929.39130435 990.73113043 766.44173913 1012.86956522 512 1012.86956522s-417.39130435-22.13843478-417.39130435-92.05982609c0-81.60834783 109.18956522-140.5773913 267.13043478-164.21843478V715.35304348c-59.1026087-47.51582609-109.12278261-115.76765217-138.34017391-192.13356522-24.97669565-20.23513043-42.70747826-53.52626087-56.89878261-102.04382609-13.35652174-45.54573913 0.06678261-84.88069565 31.65495652-111.22643478C219.25843478 124.32695652 339.13321739 11.13043478 514.3373913 11.13043478c172.8 0 289.03513043 110.32486957 311.04 293.67652174 30.72 25.94504348 44.5773913 66.68243478 33.35791305 114.63234783-13.89078261 59.23617391-32.18921739 96.53426087-61.54017392 114.39860869-29.68486957 73.6946087-78.23582609 138.9746087-134.93426086 184.25321739v38.50017392z" fill="#3388FF" p-id="1152"></path></svg>